<?xml version="1.0" encoding="UTF-8"?>
<svg xmlns="http://www.w3.org/2000/svg" xmlns:xlink="http://www.w3.org/1999/xlink" width="32px" height="32px" viewBox="0 0 32 32" version="1.1">
<g id="surface1">
<path style=" stroke:none;fill-rule:nonzero;fill:rgb(0%,0%,0%);fill-opacity:1;" d="M 14.707031 11.292969 C 14.316406 10.902344 13.683594 10.902344 13.292969 11.292969 C 12.902344 11.683594 12.902344 12.316406 13.292969 12.707031 L 15.585938 15 L 13.292969 17.292969 C 12.902344 17.683594 12.902344 18.316406 13.292969 18.707031 C 13.683594 19.097656 14.316406 19.097656 14.707031 18.707031 L 17 16.414062 L 19.292969 18.707031 C 19.683594 19.097656 20.316406 19.097656 20.707031 18.707031 C 21.097656 18.316406 21.097656 17.683594 20.707031 17.292969 L 18.414062 15 L 20.707031 12.707031 C 21.097656 12.316406 21.097656 11.683594 20.707031 11.292969 C 20.316406 10.902344 19.683594 10.902344 19.292969 11.292969 L 17 13.585938 Z M 14.707031 11.292969 "/>
<path style=" stroke:none;fill-rule:nonzero;fill:rgb(0%,0%,0%);fill-opacity:1;" d="M 1 2 C 0.449219 2 0 2.449219 0 3 C 0 3.550781 0.449219 4 1 4 L 3.21875 4 L 4.023438 7.214844 L 7.019531 23.183594 C 7.105469 23.65625 7.519531 24 8 24 L 10 24 C 7.789062 24 6 25.789062 6 28 C 6 30.210938 7.789062 32 10 32 C 12.210938 32 14 30.210938 14 28 C 14 25.789062 12.210938 24 10 24 L 24 24 C 21.789062 24 20 25.789062 20 28 C 20 30.210938 21.789062 32 24 32 C 26.210938 32 28 30.210938 28 28 C 28 25.789062 26.210938 24 24 24 L 26 24 C 26.480469 24 26.894531 23.65625 26.980469 23.183594 L 29.980469 7.183594 C 30.035156 6.890625 29.957031 6.589844 29.769531 6.363281 C 29.578125 6.132812 29.296875 6 29 6 L 5.78125 6 L 4.96875 2.757812 C 4.859375 2.3125 4.457031 2 4 2 Z M 8.828125 22 L 6.203125 8 L 27.796875 8 L 25.171875 22 Z M 12 28 C 12 29.105469 11.105469 30 10 30 C 8.894531 30 8 29.105469 8 28 C 8 26.894531 8.894531 26 10 26 C 11.105469 26 12 26.894531 12 28 Z M 26 28 C 26 29.105469 25.105469 30 24 30 C 22.894531 30 22 29.105469 22 28 C 22 26.894531 22.894531 26 24 26 C 25.105469 26 26 26.894531 26 28 Z M 26 28 "/>
</g>
</svg>
